HIERARCHY
ROOT ui
{
	 OFFSET 0 0 0
	 CHANNELS 3 XPosition YPosition Z Position
	 EndSite
	 {
	 OFFSET 0 -1 0
	 }
}
ROOT li
{
	 OFFSET 0 0 0
	 CHANNELS 3 XPosition YPosition Z Position
	 EndSite
	 {
	 OFFSET 0 -1 0
	 }
}
ROOT ul
{
	 OFFSET 0 0 0
	 CHANNELS 3 XPosition YPosition Z Position
	 EndSite
	 {
	 OFFSET 0 -1 0
	 }
}
ROOT ll
{
	 OFFSET 0 0 0
	 CHANNELS 3 XPosition YPosition Z Position
	 EndSite
	 {
	 OFFSET 0 -1 0
	 }
}
ROOT tt
{
	 OFFSET 0 0 0
	 CHANNELS 3 XPosition YPosition Z Position
	 EndSite
	 {
	 OFFSET 0 -1 0
	 }
}
ROOT tb
{
	 OFFSET 0 0 0
	 CHANNELS 3 XPosition YPosition Z Position
	 EndSite
	 {
	 OFFSET 0 -1 0
	 }
}
ROOT td
{
	 OFFSET 0 0 0
	 CHANNELS 3 XPosition YPosition Z Position
	 EndSite
	 {
	 OFFSET 0 -1 0
	 }
}
ROOT v
{
	 OFFSET 0 0 0
	 CHANNELS 3 XPosition YPosition Z Position
	 EndSite
	 {
	 OFFSET 0 -1 0
	 }
}
ROOT bn
{
	 OFFSET 0 0 0
	 CHANNELS 3 XPosition YPosition Z Position
	 EndSite
	 {
	 OFFSET 0 -1 0
	 }
}
MOTION
Frames: 13
Frame Time: 0.002
-0.0047790961265563965	-4.2072400450706484E-4	0		0.49933380126953125	-2.41744775390625	0		-1.03322314453125	0.09115960693359375	0		-0.8101415405273438	-2.4825498046875	0		1.4109127197265625	-0.71347998046875	0		3.23226513671875	-0.13402215576171875	0		4.731638671875	-0.023524248123168945	0		5.57298681640625	0.14450144958496094	0		-0.05085073471069336	5.93652978515625	0		
-0.004102876186370849	-1.766279935836792E-4	0		0.5151633911132812	-2.413472412109375	0		-0.969390380859375	0.09917163848876953	0		-0.775484130859375	-2.48797705078125	0		1.4085372314453124	-0.7171312866210937	0		3.206817626953125	-0.14017573547363282	0		4.73816259765625	-0.03123560333251953	0		5.573658203125	0.14493049621582033	0		-0.06557754516601562	5.9260595703125	0		
-0.00163645601272583	-0.007973450183868408	0		0.47178802490234373	-2.4163818359375	0		-1.0319342041015624	0.09157768249511719	0		-0.8097261352539062	-2.48409814453125	0		1.409177734375	-0.7168482666015625	0		3.202573974609375	-0.13274395751953125	0		4.72778369140625	-0.03064179801940918	0		5.5642744140625	0.14553099060058594	0		-0.049935192108154294	5.9370107421875	0		
0.001999719023704529	-0.0037978620529174807	0		0.474471435546875	-2.41317431640625	0		-1.0155114135742187	0.08448090362548828	0		-0.795175537109375	-2.4881513671875	0		1.42177490234375	-0.7158038330078125	0		3.213871337890625	-0.14662879943847656	0		4.73245849609375	-0.024355924606323243	0		5.570640625	0.1358047790527344	0		-0.16776205444335937	5.92647900390625	0		
0.013690243721008301	0.006217649936676025	0		0.48114413452148436	-2.40705224609375	0		-1.0150100708007812	0.0846821517944336	0		-0.7905385131835938	-2.484021240234375	0		1.4243514404296875	-0.7125833740234375	0		3.2418271484375	-0.12284243774414062	0		4.73609423828125	-0.01707685089111328	0		5.57944189453125	0.15200750732421875	0		-0.03398764038085938	5.94718115234375	0		
0.00294838809967041	-0.0033559319972991945	0		0.51957373046875	-2.41054345703125	0		-0.9554637451171875	0.08976311492919922	0		-0.8049656982421876	-2.479537841796875	0		1.413812744140625	-0.7121306762695313	0		3.20895947265625	-0.13893507385253906	0		4.74955615234375	-0.01601185417175293	0		5.575771484375	0.14641160583496093	0		-0.04884685134887695	5.93768212890625	0		
-0.02266179084777832	-0.0026579840183258057	0		0.467102294921875	-2.404328369140625	0		-1.0300478515625	0.09236983489990234	0		-0.7706402587890625	-2.484984619140625	0		1.4111346435546874	-0.7158428955078125	0		3.20447998046875	-0.1315819854736328	0		4.73896240234375	-0.014519135475158691	0		5.56615576171875	0.14689921569824219	0		-0.06376422882080078	5.927173828125	0		
-0.001266605019569397	0.001142292022705078	0		0.5271455688476563	-2.42125341796875	0		-1.0297257080078126	0.09255333709716797	0		-0.8062205200195313	-2.481119140625	0		1.4114677734375	-0.7156266479492187	0		3.209672119140625	-0.1384347381591797	0		4.7410029296875	-0.029293323516845705	0		5.5812861328125	0.13689007568359374	0		-0.04831549072265625	5.93808544921875	0		
-0.022075992584228515	-0.0022740819454193117	0		0.4864225463867187	-2.42128759765625	0		-1.0235596923828125	0.08761710357666015	0		-0.7950840454101562	-2.489146728515625	0		1.4148126220703126	-0.7114814453125	0		3.215198974609375	-0.12430951690673828	0		4.75022607421875	-0.03122403335571289	0		5.57254833984375	0.137307373046875	0		-0.048117610931396486	5.93827197265625	0		
-7.998179793357849E-4	0.0015063509941101074	0		0.4980043029785156	-2.40231689453125	0		-1.025204833984375	0.09582132720947266	0		-0.7887456665039062	-2.4830908203125	0		1.4211541748046874	-0.7044063720703125	0		3.210141845703125	-0.13800767517089843	0		4.743865234375	-0.00787760591506958	0		5.58175	0.13736369323730468	0		-0.03277948760986328	5.9481640625	0		
-6.470819711685181E-4	0.0016731460094451904	0		0.5039284362792968	-2.41525732421875	0		-0.9541406860351562	0.09064445495605469	0		-0.7675599975585937	-2.482325439453125	0		1.4151812744140626	-0.7111151733398438	0		3.22451904296875	-0.1260835952758789	0		4.7457353515625	-0.02271175765991211	0		5.57709130859375	0.14766293334960937	0		-0.04785508728027344	5.93861474609375	0		
-0.0035945160388946534	-0.0011132479906082154	0		0.49316632080078127	-2.4088916015625	0		-1.0408291015625	0.10243137359619141	0		-0.8054110717773437	-2.480458251953125	0		1.4152940673828125	-0.7109500732421875	0		3.241380615234375	-0.13922540283203125	0		4.74173193359375	-0.028450366973876953	0		5.57719873046875	0.14785293579101563	0		-0.04778213500976562	5.93877099609375	0		
-4.6604400873184206E-4	0.001975911021232605	0		0.4771977233886719	-2.411441162109375	0		-1.0289285888671875	0.093347900390625	0		-0.7693884887695313	-2.4839931640625	0		1.4122955322265625	-0.7147393798828126	0		3.20561083984375	-0.13038633728027343	0		4.7400869140625	-0.013244643211364746	0		5.5772705078125	0.14802801513671876	0		-0.06294473648071289	5.928201171875	0		
